<?xml version="1.0" standalone="no"?>
<svg xmlns="http://www.w3.org/2000/svg" version="1.1" xmlns:xlink="http://www.w3.org/1999/xlink" width="512" height="512" x="0" y="0" viewBox="0 0 512 512" style="enable-background:new 0 0 512 512" xml:space="preserve"><g><path d="M56.671 303.656c-2.833-7.785-11.441-11.798-19.226-8.965l-26.575 9.673A15 15 0 0 0 1 318.459V497c0 8.284 6.716 15 15 15h64.984c1.75 0 3.486-.306 5.13-.905l26.576-9.673c7.785-2.833 11.798-11.441 8.965-19.226zM508.702 352.228c-7.625-20.948-31.561-30.864-51.766-21.444l-70.768 32.993a67.643 67.643 0 0 1-1.007 10.074c-6.463 36.653-41.54 61.215-78.193 54.752l-101.005-17.81c-8.158-1.438-13.606-9.219-12.167-17.377s9.218-13.606 17.377-12.167l101.005 17.81c20.395 3.596 39.844-10.022 43.44-30.417 3.596-20.395-10.022-39.844-30.417-43.439l-48.213-8.501c-14.428-2.544-27.881-8.016-39.987-16.264-35.187-23.972-80.082-29.591-120.093-15.028l-30.864 11.234 65.565 180.136 127.073 17.463c15.553 2.138 31.123-.585 45.027-7.872l166.926-87.485c16.854-8.835 24.576-28.775 18.067-46.658zM245.178 80h101.645l22.4-59.733C372.9 10.46 365.65 0 355.177 0H236.823C226.35 0 219.1 10.46 222.778 20.267z" fill="#ffffff" opacity="1" data-original="#000000"/><path d="M248.794 272.309c-5.146-6.144-4.574-15.301 1.417-20.73 6.139-5.563 15.625-5.097 21.188 1.042 6.457 7.125 16.632 11.378 27.218 11.378 9.975 0 16.978-5.835 17.985-11.477 1.33-7.45-10.092-12.28-13.625-13.583-17.099-6.307-32.284-13.066-32.921-13.351a14.959 14.959 0 0 1-2.081-1.133c-12.011-7.83-18.199-21.561-16.15-35.834 2.179-15.18 13.259-27.54 28.915-32.256 30.002-9.04 54.783 10.638 56.871 12.359l.022.019.099.082-.004.005c3.27 2.751 5.352 6.87 5.352 11.478 0 8.284-6.716 15-15 15a14.934 14.934 0 0 1-9.648-3.522l-.004.005.094.078c-.139-.113-14.148-11.289-29.13-6.778-6.371 1.919-7.628 6.09-7.873 7.794-.166 1.156-.252 3.898 2.12 5.907 4.028 1.761 16.422 7.098 29.718 12.002 28.478 10.504 35.603 31.167 32.775 47.002-3.026 16.95-16.656 30.14-34.326 34.582l18.601 3.28c17.755 3.13 33.229 12.988 43.57 27.757a68.432 68.432 0 0 1 5.904 10.192l63.617-29.659v-39.645c0-35.014-9.73-69.264-28.138-99.048A188.255 188.255 0 0 0 363.165 110H228.833a188.255 188.255 0 0 0-52.195 55.255 188.252 188.252 0 0 0-27.429 82.707c4.308-.343 8.639-.523 12.989-.523 30.86 0 60.669 8.58 86.596 24.87z" fill="#ffffff" opacity="1" data-original="#000000"/></g></svg>