<?xml version="1.0" standalone="no"?>
<svg xmlns="http://www.w3.org/2000/svg" version="1.1" xmlns:xlink="http://www.w3.org/1999/xlink" width="512" height="512" x="0" y="0" viewBox="0 0 491.5 491.5" style="enable-background:new 0 0 512 512" xml:space="preserve" class=""><g><path d="M390.5 64.3c3.5-3 3.7-7.4 1.6-11.4-1.8-3.3-5.3-5.5-9.1-5.6-12.7-.3-28.4 22.8-34.1 34v13.8h17.3c6.6-11.1 14.6-22.4 24.3-30.8zM339.3 46.7c0-6.1-5-11.1-11.1-11.1s-11.1 5-11.1 11.1v48.5h22.3V46.7zM265.9 64.3c9.7 8.4 17.7 19.7 24.3 30.9h17.3V81.3c-5.7-11.1-21.4-34.3-34.1-34-3.8.1-7.3 2.2-9.1 5.6-2.2 3.9-1.9 8.3 1.6 11.4zM280.1 104.7c-5.4 0-9.8 4.4-9.8 9.8s4.4 9.8 9.8 9.8h96.1c5.4 0 9.8-4.4 9.8-9.8s-4.4-9.8-9.8-9.8zM95.9 302.7c-3.2-4.7-9.5-5.9-14.2-2.7l-46.5 31.5c-4.7 3.2-5.9 9.5-2.7 14.2l74.8 110.7c3.2 4.7 9.5 5.9 14.2 2.7l46.5-31.5c4.7-3.2 5.9-9.5 2.7-14.2zM455.2 299.6c-2.3-14.7-9.2-28.4-17.1-40.9-9-14.3-19.6-27.6-29.7-41.1-18.5-24.7-37.3-52.1-39.8-83.7h-80.9c-.4 5.3-1.3 10.6-2.6 15.8-6.3 25.1-21.9 47.5-37.2 67.9-9.4 12.6-19.2 25.1-27.8 38.2-6.4 9.9-12.4 20.6-16.1 31.9l18.5-.2c23.2-.3 52.6 7.2 64.6 29.1 6 10.9 34.8 13.8 46 14.5 4.2.3 8 1.8 11.4 4.3 6.2 4.8 9.8 12.7 10 20.6l45.8-11.6c14.1-3.6 28.8 3.5 32.5 18 10.6-9.5 17.2-21.4 21-35.7 2.4-8.9 2.8-17.9 1.4-27.1zM314.9 244c3.4 3.4 8.1 5.5 13.2 5.5 7.8 0 14.9 3.2 20 8.3s8.3 12.2 8.3 20-3.2 14.9-8.3 20c-4.1 4.1-9.3 6.9-15.2 7.9v11c0 2.7-2.1 4.8-4.8 4.8s-4.8-2.1-4.8-4.8v-11c-5.9-1-11.2-3.8-15.2-7.9-5.1-5.1-8.3-12.2-8.3-20 0-2.7 2.1-4.8 4.8-4.8s4.8 2.1 4.8 4.8c0 5.2 2.1 9.9 5.5 13.2 3.4 3.4 8.1 5.5 13.2 5.5 5.2 0 9.9-2.1 13.2-5.5 3.4-3.4 5.5-8.1 5.5-13.2 0-5.2-2.1-9.9-5.5-13.2-3.4-3.4-8.1-5.5-13.2-5.5-7.8 0-14.9-3.2-20-8.3s-8.3-12.2-8.3-20 3.2-14.9 8.3-20c4.1-4.1 9.3-6.9 15.2-7.9v-11c0-2.7 2.1-4.8 4.8-4.8s4.8 2.1 4.8 4.8v11c5.9 1 11.2 3.8 15.2 7.9 5.1 5.1 8.3 12.2 8.3 20 0 2.7-2.1 4.8-4.8 4.8s-4.8-2.1-4.8-4.8c0-5.2-2.1-9.9-5.5-13.2-3.4-3.4-8.1-5.5-13.2-5.5-5.2 0-9.9 2.1-13.2 5.5-3.4 3.4-5.5 8.1-5.5 13.2.1 5.1 2.2 9.8 5.5 13.2zm115.2 81.2c-.7 2.6-3.3 4.1-5.9 3.4s-4.1-3.3-3.4-5.9c1.6-6 2.1-11.8 1.6-17.5-.4-5.7-1.8-11.3-3.9-16.8-.9-2.5.3-5.2 2.8-6.2s5.2.3 6.2 2.8c2.4 6.4 3.9 12.8 4.5 19.5.5 6.7 0 13.5-1.9 20.7z" fill="#ffffff" opacity="1" data-original="#000000"/><path d="m402.6 353.7-51.4 13.1c-2.6 8.8-10.4 15.1-19.6 15.8-13.2 1-28.5-.7-43.6-4-16.7-3.6-33.2-9.2-46.2-15.4-2.4-1.1-3.4-4-2.3-6.4 3-6.4 39.8 10.1 50.5 12.5 14.3 3.1 28.7 4.7 40.9 3.8 6.5-.5 11.9-6.4 13.4-12.5 2.1-8.2-2.7-19.2-11.9-19.8-29.8-2-47.7-8.5-53.8-19.5-9.8-17.9-35.4-24.4-56-24.1l-69.8.8c-12.5.1-25.7 5.6-39 14.3l49.6 73.3c17.5-8.9 36.6-7.4 56.8 17 24.3 33.3 95.5 9.5 128.9-.2l64-18.6c8.4-2.5 12.6-12.1 9.6-20.4-2.7-8.3-11.6-11.8-20.1-9.7z" fill="#ffffff" opacity="1" data-original="#000000"/></g></svg>