<?xml version="1.0" standalone="no"?>
<svg xmlns="http://www.w3.org/2000/svg" version="1.1" xmlns:xlink="http://www.w3.org/1999/xlink" width="512" height="512" x="0" y="0" viewBox="0 0 512.356 512.356" style="enable-background:new 0 0 512 512" xml:space="preserve"><g><path d="m271.74 70.493 31.495 17.225 17.225 31.495a5.5 5.5 0 0 0 9.652 0l17.225-31.495 31.495-17.225a5.5 5.5 0 0 0 0-9.652l-31.495-17.225-17.225-31.495a5.5 5.5 0 0 0-9.652 0l-17.225 31.495-31.495 17.226a5.5 5.5 0 0 0 0 9.651z" fill="#ffffff" opacity="1" data-original="#000000"/><circle cx="248.56" cy="130.49" r="15" fill="#ffffff" opacity="1" data-original="#000000"/><path d="M392.848 306.049c-5.858 5.858-5.858 15.355 0 21.213s15.355 5.858 21.213 0 5.858-15.355 0-21.213-15.356-5.858-21.213 0z" fill="#ffffff" opacity="1" data-original="#000000"/><circle cx="398.226" cy="137.048" r="15" fill="#ffffff" opacity="1" data-original="#000000"/><path d="M159.566 92.179c1.661.591 3.357.871 5.024.871 6.169 0 11.949-3.834 14.134-9.979l15.766-44.343c2.775-7.805-1.303-16.383-9.108-19.158-7.808-2.777-16.384 1.302-19.158 9.108l-15.766 44.343c-2.776 7.805 1.302 16.383 9.108 19.158zM501.019 149.96c-8.032-2.023-16.186 2.846-18.211 10.878l-10.383 41.189a220.416 220.416 0 0 1-23.621-16.528 20.671 20.671 0 0 0-21.038-2.915 20.636 20.636 0 0 0-12.505 17.122 870.82 870.82 0 0 0-2.538 35.33c-8.001-4.09-15.949-8.471-23.723-12.756-5.737-3.162-11.668-6.432-17.578-9.563-6.426-3.405-13.996-3.213-20.249.516-6.258 3.731-10.03 10.305-10.09 17.585a2774.56 2774.56 0 0 0-.037 40.803c.053 8.251 6.758 14.903 14.998 14.903h.099c8.284-.053 14.957-6.813 14.903-15.096-.053-8.234-.069-16.534-.047-24.814 1.18.649 2.354 1.297 3.521 1.94 12.312 6.786 25.043 13.804 38.266 19.869a20.671 20.671 0 0 0 19.513-1.197 20.6 20.6 0 0 0 9.789-16.844c.362-10.37.923-20.817 1.674-31.223a250.5 250.5 0 0 0 25.045 15.317c4.997 2.665 10.615 3.132 15.817 1.315 5.796-2.023 10.539-6.714 13.354-13.207.323-.745.585-1.514.783-2.301l13.137-52.112c2.024-8.032-2.846-16.186-10.879-18.211z" fill="#ffffff" opacity="1" data-original="#000000"/><circle cx="466.839" cy="45.388" r="45.224" fill="#ffffff" opacity="1" data-original="#000000"/><path d="M279.99 202.688c1.807 0 3.646-.329 5.432-1.023l43.864-17.052c7.721-3.002 11.547-11.694 8.546-19.416-3.002-7.721-11.695-11.547-19.416-8.546l-43.864 17.052c-7.721 3.002-11.547 11.694-8.546 19.416 2.307 5.936 7.977 9.569 13.984 9.569zM47.06 392.554l116.383 53.574 74.579-32.641-164.226-81.803zM86.195 303.457 266 393.02 113.736 240.757zM162.771 152.001c-6.506-6.506-15.033-9.759-23.56-9.759s-17.054 3.253-23.56 9.759c-13.012 13.012-13.012 34.108 0 47.12l200.484 200.484c6.506 6.506 15.033 9.759 23.56 9.759s17.054-3.253 23.56-9.759c13.012-13.012 13.012-34.108 0-47.12zM.908 497.623c-3.797 8.645 4.998 17.453 13.648 13.667l111.135-48.64-91.019-41.898z" fill="#ffffff" opacity="1" data-original="#000000"/></g></svg>