<?xml version="1.0" standalone="no"?>
<svg xmlns="http://www.w3.org/2000/svg" version="1.1" xmlns:xlink="http://www.w3.org/1999/xlink" width="512" height="512" x="0" y="0" viewBox="0 0 64 64" style="enable-background:new 0 0 512 512" xml:space="preserve" class=""><g><path d="M42.68 50.61C44.13 54.35 47.76 57 52 57c5.18 0 9.45-3.95 9.95-9H44.38zM64 46c0-3.32-1.34-6.32-3.51-8.49-1.9-1.9-4.43-3.16-7.25-3.45L45.64 46zM49 22c-.16-.34-.32-.68-.49-1H44c-.82 0-1.61-.13-2.36-.36L40.55 34.9c-.03.39-.18.77-.42 1.07l-2.53 3.26c-.38.49-.96.77-1.58.77H32c-1.1 0-2-.9-2-2v-6a9.894 9.894 0 0 0 2.94-3.53A9.907 9.907 0 0 0 34 24c0-1.1-.9-2-2-2H18.13C10.25 22 3.7 27.64 2.29 35.11 5.21 31.97 9.38 30 14 30h3.14c5.44 0 9.86 4.42 9.86 9.86V48h15c3-4.67 6-9.33 9-14 .22-2.37.3-6.99-2-12zM13 57c4.47 0 8.26-2.94 9.54-7H3.46c1.28 4.06 5.07 7 9.54 7zM34 15h4.349c.825 2.329 3.04 4 5.651 4h7a18.51 18.51 0 0 0 0-12h-7a5.996 5.996 0 0 0-5.651 4H34a2 2 0 1 0 0 4z" fill="#ffffff" opacity="1" data-original="#000000"/><path d="M17.138 32H14C6.268 32 0 38.268 0 46a2 2 0 0 0 2 2h23v-8.138A7.862 7.862 0 0 0 17.138 32zM18 44H8a1 1 0 0 1 0-2h10a1 1 0 0 1 0 2zm0-4H8a1 1 0 0 1 0-2h10a1 1 0 0 1 0 2z" fill="#ffffff" opacity="1" data-original="#000000"/></g></svg>