<?xml version="1.0" standalone="no"?>
<svg xmlns="http://www.w3.org/2000/svg" version="1.1" xmlns:xlink="http://www.w3.org/1999/xlink" width="512" height="512" x="0" y="0" viewBox="0 0 480.002 480.002" style="enable-background:new 0 0 512 512" xml:space="preserve" class=""><g><path d="m413.176 369.138-19.473 19.473c5.419 11.117 8.297 23.401 8.297 36.132V472a8 8 0 0 1-16 0v-47.257c0-35.015-26.92-63.564-61.09-66.332l-33.22 115.795a8.004 8.004 0 0 1-7.686 5.796c-5.319 0-9.159-5.1-7.694-10.208l32.362-112.803c-13.017-2.853-24.364-10.825-31.503-22.546a8 8 0 0 1 2.67-10.994 8 8 0 0 1 10.994 2.67c5.819 9.553 15.767 15.436 26.854 15.995a7.95 7.95 0 0 1 3.064.088c24.978.391 48.511 11.843 64.299 32.433l16.812-16.812c6.528-6.528 7.137-16.916 1.416-24.162-12.686-16.058-9.461-35.485 2.702-46.953 6.831-6.44 7.604-17.24 1.759-24.587l-11.516-14.477a34.245 34.245 0 0 1-6.039-30.98l7.445-25.23a18.163 18.163 0 0 0-10.562-22.006l-9.826-4.026C364.338 160.116 356 147.693 356 133.753v-25.749C356 57.271 314.729 16 264 16h-48c-50.729 0-92 41.273-92 92.004v25.749c0 13.94-8.337 26.363-21.24 31.651l-9.827 4.026a18.164 18.164 0 0 0-10.562 22.006l7.445 25.23a34.242 34.242 0 0 1-6.039 30.98l-11.516 14.477c-5.844 7.347-5.071 18.146 1.759 24.587 12.184 11.487 15.373 30.91 2.7 46.955-5.72 7.245-5.111 17.632 1.417 24.16l16.812 16.812c15.478-20.185 39.207-32.465 65.621-32.465 18.463 0 33.429-14.877 33.429-33.341v-2.102c-33.067-15.745-55.181-46.937-59.994-81.877a8 8 0 0 1 15.85-2.184c6.161 44.728 44.914 78.457 90.144 78.457 50.178 0 91-40.822 91-91v-49.317c-18.703-6.779-35.017-19.818-45.674-38.044-38.579 44.82-93.665 70.894-152.006 73.229a8 8 0 0 1-.639-15.987c57.611-2.304 111.893-29.584 147.959-76.859 3.768-4.941 11.505-3.872 13.796 1.901 8.398 21.157 26.034 36.369 46.751 42.256 3.048.854 5.52 3.603 5.783 7.088.05.656.038 56.23.027 56.571-.546 70.5-68.621 121.934-137.165 101.802-1.04 13.255-7.35 25.734-18.34 34.562l48.508 37.555 28.53-22.087a8 8 0 0 1 9.795 12.651l-30.325 23.477V456a8 8 0 0 1-16 0v-57.076l-55.864-43.249c-8.677 2.862-16.325 2.498-15.563 2.498-36.794-.001-66.573 29.773-66.573 66.571V472a8 8 0 0 1-16 0v-47.257c0-12.731 2.878-25.015 8.297-36.132l-19.473-19.473c-11.395-11.395-14.404-30.522-1.979-46.254 5.891-7.462 5.117-18.01-1.802-24.533-12.832-12.099-14.283-32.387-3.304-46.189l11.516-14.478a18.227 18.227 0 0 0 3.214-16.491l-7.445-25.23a34.12 34.12 0 0 1 19.841-41.34l9.827-4.026a18.143 18.143 0 0 0 11.306-16.845v-25.749C108.001 48.451 156.45 0 216.001 0h48c59.551 0 108 48.449 108 108v25.753a18.145 18.145 0 0 0 11.307 16.846l9.826 4.025a34.12 34.12 0 0 1 19.842 41.34l-7.445 25.23a18.227 18.227 0 0 0 3.214 16.491l11.516 14.477c10.979 13.802 9.527 34.091-3.304 46.189-6.919 6.523-7.693 17.071-1.801 24.535 12.219 15.467 9.63 34.643-1.98 46.252zM179.7 384.826c-1.201-4.252-5.621-6.728-9.873-5.525a8 8 0 0 0-5.525 9.873l24 85a8 8 0 0 0 15.398-4.348z" fill="#ffffff" opacity="1" data-original="#000000" class=""/></g></svg>