<?xml version="1.0" standalone="no"?>
<svg xmlns="http://www.w3.org/2000/svg" version="1.1" xmlns:xlink="http://www.w3.org/1999/xlink" width="512" height="512" x="0" y="0" viewBox="0 0 195.471 195.471" style="enable-background:new 0 0 512 512" xml:space="preserve"><g><path d="M103.832 79.077c-9.475-8.813-20.172-21.992-20.557-41.768 4.784 16.109 21.146 39.05 65.134 69.122 0 0-48.292-67.609-31.95-105.508 0 0-9.018-4.646-27.021 6.908.012-.028.021-.063.033-.096 0 0-30.027 20.121-25.012 42.099.985 4.342.296 9.593-10.153 14.62-2.096 1-5.822 2.223-4.83 7.923 0 0 1.013 4.057 3.037 5.608.1.077.217.123.308.213 2.601 2.477-1.916 1.771-3.338 2.225-2.421.777-2.48 5.573 1.359 9.784 0 0-6.192 6.194-2.723 11.645 0 0 .862.983 4.461.492 0 0-2.769 19.545 12.259 19.069 8.843-.29 28.113-7.557 35.166 3.842 0 0 23.902 29.352-5.075 70.216 0 0 33.426-12.378 36.895-50.287-.006.016 10.649-30.201-27.993-66.107z" fill="#ffffff" opacity="1" data-original="#000000"/></g></svg>