<?xml version="1.0" standalone="no"?>
<svg xmlns="http://www.w3.org/2000/svg" version="1.1" xmlns:xlink="http://www.w3.org/1999/xlink" width="512" height="512" x="0" y="0" viewBox="0 0 511 511.999" style="enable-background:new 0 0 512 512" xml:space="preserve" class=""><g><path d="M195.5 151c-57.89 0-105 47.11-105 105s47.11 105 105 105 105-47.11 105-105-47.11-105-105-105zm70.605 85.605-75 75c-2.93 2.93-6.77 4.395-10.605 4.395s-7.676-1.465-10.605-4.395l-45-45c-5.86-5.859-5.86-15.351 0-21.21s15.351-5.86 21.21 0l34.395 34.394 64.395-64.394c5.859-5.86 15.351-5.86 21.21 0s5.86 15.351 0 21.21zm0 0" fill="#ea1997" opacity="1" data-original="#000000" class=""/><path d="M375.5 61h-35.14c-50.715 0-98.395-20.746-134.255-56.605-5.859-5.86-15.351-5.86-21.21 0C149.035 40.254 101.355 61 50.64 61H15.5c-8.293 0-15 6.707-15 15v180c0 134.793 98.086 197.492 162.992 238.316C169.426 498.04 189.184 512 195.5 512c6.3 0 25.535-13.602 31.45-17.316C292.077 453.832 390.5 391.07 390.5 256V76c0-8.293-6.71-15-15-15zm-180 330c-74.445 0-135-60.559-135-135 0-74.445 60.555-135 135-135 74.441 0 135 60.555 135 135 0 74.441-60.559 135-135 135zm0 0" fill="#ea1997" opacity="1" data-original="#000000" class=""/></g></svg>