<?xml version="1.0" standalone="no"?>
<svg xmlns="http://www.w3.org/2000/svg" version="1.1" xmlns:xlink="http://www.w3.org/1999/xlink" width="512" height="512" x="0" y="0" viewBox="0 0 512 512" style="enable-background:new 0 0 512 512" xml:space="preserve"><g><path d="M352 64h-32V16c0-8.832-7.168-16-16-16h-96c-8.832 0-16 7.168-16 16v48h-32c-17.632 0-32 14.368-32 32v384c0 17.952 14.048 32 32 32h192c17.952 0 32-14.048 32-32V96c0-17.952-14.048-32-32-32zm-96 352v-96h-64l64-160v96h64l-64 160z" fill="#ffffff" opacity="1" data-original="#000000"/></g></svg>