<?xml version="1.0" standalone="no"?>
<svg xmlns="http://www.w3.org/2000/svg" version="1.1" xmlns:xlink="http://www.w3.org/1999/xlink" width="512" height="512" x="0" y="0" viewBox="0 0 64 64" style="enable-background:new 0 0 512 512" xml:space="preserve" class=""><g><path d="M34 28a11 11 0 1 0-11-11 11.013 11.013 0 0 0 11 11Zm-4-14a4 4 0 0 1 3-3.858V9a1 1 0 0 1 2 0v1.142A4 4 0 0 1 38 14a1 1 0 0 1-2 0 1.993 1.993 0 0 0-1-1.722v3.864a3.981 3.981 0 0 1 0 7.716V25a1 1 0 0 1-2 0v-1.142A4 4 0 0 1 30 20a1 1 0 0 1 2 0 1.993 1.993 0 0 0 1 1.722v-3.864A4 4 0 0 1 30 14Z" fill="#ea1997" opacity="1" data-original="#000000"/><path d="M36 20a1.993 1.993 0 0 0-1-1.722v3.444A1.993 1.993 0 0 0 36 20Z" fill="#ea1997" opacity="1" data-original="#000000"/><path d="M30.5 33.634V37H28a1 1 0 0 0-.707 1.707l6 6a1 1 0 0 0 1.414 0l6-6A1 1 0 0 0 40 37h-2.5v-3.366a17 17 0 1 0-7 0ZM34 4a13 13 0 1 1-13 13A13.015 13.015 0 0 1 34 4Z" fill="#ea1997" opacity="1" data-original="#000000"/><path d="M33 12.278a1.983 1.983 0 0 0 0 3.444Z" fill="#ea1997" opacity="1" data-original="#000000"/><rect width="14" height="19" x="1" y="45" rx="1" fill="#ea1997" opacity="1" data-original="#000000"/><path d="M47.258 47.215A4.969 4.969 0 0 1 49.028 51c0 .158-.007.315-.021.47l6.3-6.625a2.609 2.609 0 0 0-4.47-1.393Z" fill="#ea1997" opacity="1" data-original="#000000"/><path d="m58.423 44.475-9.488 9.972A5 5 0 0 1 45.313 56H33.028a1 1 0 1 1 0-2h11a3 3 0 0 0 0-6h-11.7l-.252-.168a11.085 11.085 0 0 0-12.1 0l-.25.168H17v13h2.7a12.859 12.859 0 0 0 6.9 2h20.343a9 9 0 0 0 7.291-3.724L62.5 47.86a2.654 2.654 0 0 0-4.073-3.385Z" fill="#ea1997" opacity="1" data-original="#000000"/></g></svg>