<?xml version="1.0" standalone="no"?>
<svg xmlns="http://www.w3.org/2000/svg" version="1.1" xmlns:xlink="http://www.w3.org/1999/xlink" width="512" height="512" x="0" y="0" viewBox="0 0 24 24" style="enable-background:new 0 0 512 512" xml:space="preserve"><g><path d="M17.75 6.25A.75.75 0 0 1 17 5.5V2.75a.75.75 0 0 1 1.5 0V5.5a.75.75 0 0 1-.75.75zM21.25 6.25a.75.75 0 0 1-.75-.75V2.75a.75.75 0 0 1 1.5 0V5.5a.75.75 0 0 1-.75.75z" fill="#ffffff" opacity="1" data-original="#000000"/><path d="M22.313 5h-5.625C15.757 5 15 5.753 15 6.679v1.857C15 10.997 17.019 13 19.5 13S24 10.997 24 8.536V6.679C24 5.753 23.243 5 22.313 5zM20.25 9h-1.5a.75.75 0 0 1 0-1.5h1.5a.75.75 0 0 1 0 1.5z" fill="#ffffff" opacity="1" data-original="#000000"/><path d="M17.375 22a2.629 2.629 0 0 1-2.625-2.625V15.5c0-.689-.561-1.25-1.25-1.25h-2.25a.75.75 0 0 1 0-1.5h2.25a2.752 2.752 0 0 1 2.75 2.75v3.875c0 .62.505 1.125 1.125 1.125s1.125-.505 1.125-1.125V12.5a.75.75 0 0 1 1.5 0v6.875A2.629 2.629 0 0 1 17.375 22z" fill="#ffffff" opacity="1" data-original="#000000"/><path d="M9.25 4H9v-.25C9 2.785 8.215 2 7.25 2h-2.5C3.785 2 3 2.785 3 3.75V4h-.25A2.752 2.752 0 0 0 0 6.75v12.5A2.752 2.752 0 0 0 2.75 22h6.5A2.752 2.752 0 0 0 12 19.25V6.75A2.752 2.752 0 0 0 9.25 4zm-1.531 8.915a.748.748 0 0 1 .107 1.065l-2.5 3a.749.749 0 1 1-1.152-.96l2.01-2.413-1.903-1.522a.747.747 0 0 1-.087-1.089l2.5-2.75a.75.75 0 0 1 1.111 1.009l-1.963 2.159z" fill="#ffffff" opacity="1" data-original="#000000"/></g></svg>