<?xml version="1.0" standalone="no"?>
<svg xmlns="http://www.w3.org/2000/svg" version="1.1" xmlns:xlink="http://www.w3.org/1999/xlink" width="512" height="512" x="0" y="0" viewBox="0 0 24 24" style="enable-background:new 0 0 512 512" xml:space="preserve" fill-rule="evenodd"><g><path d="m10.136 15.474 1 1a.753.753 0 0 0 1.107-.051l1.666-2a.75.75 0 0 0-1.152-.96l-1.141 1.369-.419-.419a.75.75 0 1 0-1.061 1.061z" fill="#ffffff" opacity="1" data-original="#000000"/><path d="M22.25 8.986H1.75v10.75c0 .729.29 1.429.805 1.945a2.755 2.755 0 0 0 1.945.805h15c.729 0 1.429-.29 1.945-.805a2.755 2.755 0 0 0 .805-1.945zM12 10.014a4.752 4.752 0 0 0-4.75 4.75c0 2.621 2.128 4.75 4.75 4.75s4.75-2.129 4.75-4.75a4.752 4.752 0 0 0-4.75-4.75zM1.75 7.486h20.5V5.764c0-.729-.29-1.429-.805-1.945a2.755 2.755 0 0 0-1.945-.805h-2.25v2.5a.75.75 0 0 1-1.5 0v-2.5h-7.5v2.5a.75.75 0 0 1-1.5 0v-2.5H4.5c-.729 0-1.429.29-1.945.805a2.755 2.755 0 0 0-.805 1.945z" fill="#ffffff" opacity="1" data-original="#000000"/><path d="M15.75 3.014h1.5v-.75a.75.75 0 0 0-1.5 0zM6.75 3.014h1.5v-.75a.75.75 0 0 0-1.5 0z" fill="#ffffff" opacity="1" data-original="#000000"/></g></svg>