<?xml version="1.0" standalone="no"?>
<svg xmlns="http://www.w3.org/2000/svg" version="1.1" xmlns:xlink="http://www.w3.org/1999/xlink" width="512" height="512" x="0" y="0" viewBox="0 0 64 64" style="enable-background:new 0 0 512 512" xml:space="preserve" class=""><g><path d="M15 15a3 3 0 1 1 3 3 3.003 3.003 0 0 1-3-3Zm-6 0a12.993 12.993 0 0 1 24.521-6H53a1 1 0 0 1 .707.293l5 5a1 1 0 0 1 0 1.414l-5 5a1 1 0 0 1-1.414 0L50 18.414l-2.293 2.293a1 1 0 0 1-1.414 0L44 18.414l-2.293 2.293A1 1 0 0 1 41 21h-7.479A12.993 12.993 0 0 1 9 15Zm4 0a5 5 0 1 0 5-5 5.006 5.006 0 0 0-5 5ZM9.707 41.121a3 3 0 0 0-4.242 0l-3.172 3.172a1 1 0 0 0 0 1.414l16 16a1 1 0 0 0 1.414 0l3.172-3.172a3 3 0 0 0 0-4.242ZM60.6 28.4a4.79 4.79 0 0 0-3.39-1.4 4.74 4.74 0 0 0-3.37 1.38l-7.12 6.6A6.92 6.92 0 0 1 48 39a7.008 7.008 0 0 1-7 7H31a1 1 0 0 1 0-2h10a5 5 0 0 0 0-10H21.14a10.922 10.922 0 0 0-7.78 3.22l-2.37 2.37a1.516 1.516 0 0 1 .13.12l13.17 13.17a1.545 1.545 0 0 1 .12.13l.13-.13a2.997 2.997 0 0 1 2.12-.88h16.23a11.02 11.02 0 0 0 8.91-4.55l9.26-12.8a4.812 4.812 0 0 0-.46-6.25Z" data-name="21-Key" fill="#ffffff" opacity="1" data-original="#000000" class=""/></g></svg>