<?xml version="1.0" standalone="no"?>
<svg xmlns="http://www.w3.org/2000/svg" version="1.1" xmlns:xlink="http://www.w3.org/1999/xlink" width="512" height="512" x="0" y="0" viewBox="0 0 64 64" style="enable-background:new 0 0 512 512" xml:space="preserve" class=""><g><linearGradient id="a" x1="4" x2="60" y1="32" y2="32" gradientUnits="userSpaceOnUse"><stop stop-opacity="1" stop-color="#ff0072" offset="0"/><stop stop-opacity="1" stop-color="#fe63c1" offset="1"/></linearGradient><path fill="url(#a)" d="M35.341 44.209H7.201c-4.363-.114-4.211-6.537.12-6.485a23.484 23.484 0 0 1 17.931-22.876v-1.9a2.124 2.124 0 0 1 2.122-2.121h6.724a2.124 2.124 0 0 1 2.121 2.121v1.902a23.286 23.286 0 0 1 11.068 6.195 23.552 23.552 0 0 1 3.438 4.358 1 1 0 0 1-1.707 1.045 21.556 21.556 0 0 0-3.146-3.988 21.304 21.304 0 0 0-9.653-5.552v8.368a1 1 0 0 1-2.001 0V12.948a.12.12 0 0 0-.12-.12h-6.724a.12.12 0 0 0-.12.12v12.328a1 1 0 0 1-2.002 0v-8.367a21.48 21.48 0 0 0-15.93 20.695c-.228.346 25.07-.01 25.089.12a1 1 0 0 1 0 2.002H7.201a1.241 1.241 0 0 0 0 2.482h28.14a1 1 0 0 1 0 2.001zm13.326 8.964a17.35 17.35 0 0 1-11.122-18.835c.08-.553.164-1.268.75-1.509l10-4a1.008 1.008 0 0 1 .744 0l10 4c.616.203.667 1.014.75 1.51a17.35 17.35 0 0 1-11.122 18.835zm9.117-18.69-9.117-3.646-9.118 3.646a15.458 15.458 0 0 0 9.118 16.589 15.457 15.457 0 0 0 9.117-16.588z" opacity="1" data-original="url(#a)"/></g></svg>