<?xml version="1.0" standalone="no"?>
<svg xmlns="http://www.w3.org/2000/svg" version="1.1" xmlns:xlink="http://www.w3.org/1999/xlink" width="512" height="512" x="0" y="0" viewBox="0 0 512 512" style="enable-background:new 0 0 512 512" xml:space="preserve" class=""><g><path d="M339.58 455.01c0 31.21-69.68 56.49-155.62 56.49S28.34 486.22 28.34 455.01c0-22.9 37.5-42.6 91.45-51.48 18.62 23.27 36.62 44.42 51.59 62.11l8.65 10.26c1.02 1.19 2.38 1.81 3.94 1.81 1.59 0 2.92-.62 3.94-1.81l8.65-10.26c14.97-17.69 32.97-38.83 51.59-62.11 53.93 8.87 91.43 28.57 91.43 51.48zm-39.8-150.86c-25.85-11.96-47.71-31.1-63.04-54.85-15.17 9.89-33.31 15.65-52.78 15.65-53.4 0-96.69-43.29-96.69-96.69s43.29-96.69 96.69-96.69c19.47 0 37.62 5.78 52.78 15.68a150.617 150.617 0 0 1 52.78-49.61C258.91 12.89 221.43.5 183.96.5 140.9.5 97.87 16.83 65.19 49.51 32.99 81.71 16.66 124 16.21 166.47c-.96 91.19 108.74 218.64 167.75 288.54 32.26-38.21 79.65-93.6 115.82-150.86zm89.04 34.52 36.26-9.72-5.92-22.08c-11.42 4.68-23.58 7.97-36.26 9.69zm-26.22-37.22c-73.56 0-133.2-59.64-133.2-133.2S289.04 35.08 362.6 35.08s133.2 59.61 133.2 133.17-59.64 133.2-133.2 133.2zm72.71-60.49c40.14-40.14 40.14-105.25 0-145.39-40.17-40.17-105.25-40.17-145.42 0-40.14 40.14-40.14 105.25 0 145.39 40.17 40.14 105.25 40.14 145.42 0zm11.96 107.52c-1.16-4.31-5.64-6.92-9.95-5.75l-52.21 14c-4.31 1.16-6.89 5.61-5.73 9.92l27.01 100.83c4.99 18.68 24.38 29.85 43.03 24.86 18.68-5.02 29.85-24.38 24.86-43.06zm-37.84-188.45h-38.58v-38.61c0-4.56-3.69-8.25-8.25-8.25s-8.25 3.69-8.25 8.25v46.83c0 4.56 3.68 8.25 8.25 8.25h46.83c4.56 0 8.25-3.69 8.25-8.25 0-4.53-3.69-8.22-8.25-8.22z" fill="#ffffff" opacity="1" data-original="#000000" class=""/></g></svg>