<?xml version="1.0" standalone="no"?>
<svg xmlns="http://www.w3.org/2000/svg" version="1.1" xmlns:xlink="http://www.w3.org/1999/xlink" width="512" height="512" x="0" y="0" viewBox="0 0 512 512" style="enable-background:new 0 0 512 512" xml:space="preserve" class=""><g><path fill-rule="evenodd" d="M180.604 47.502h150.793c2.203 0 4 1.797 4 4v251.153h-43.07v-79.531h-70.37v79.531h-45.353V51.502c0-2.203 1.797-4 4-4zm151.737 350.189H490.24a4.982 4.982 0 0 0 4.923-5.877c-7.106-39.878-41.952-70.155-83.872-70.155-41.921 0-76.767 30.277-83.873 70.155a4.982 4.982 0 0 0 4.923 5.877zM100.71 225.503c23.791 0 43.078 19.287 43.078 43.077 0 23.791-19.287 43.078-43.078 43.078s-43.078-19.287-43.078-43.078c0-23.79 19.287-43.077 43.078-43.077zm310.581 0c23.791 0 43.078 19.287 43.078 43.077 0 23.791-19.287 43.078-43.078 43.078s-43.077-19.287-43.077-43.078c0-23.79 19.286-43.077 43.077-43.077zM21.76 397.691h157.899a4.982 4.982 0 0 0 4.923-5.877c-7.106-39.878-41.952-70.155-83.872-70.155-41.921 0-76.767 30.277-83.873 70.156a4.982 4.982 0 0 0 4.923 5.876zm389.532-267.528c0-2.203-1.797-4-4-4h-55.895v176.492h11.634a58.8 58.8 0 0 1-10.817-34.075c0-18.175 8.215-34.434 21.131-45.272v-17.026c0-1.102.898-2 2-2h12c1.102 0 2 .898 2 2v7.437a58.872 58.872 0 0 1 21.947-4.216zm-37.948 34.873c0-1.102.898-2 2-2h12c1.102 0 2 .898 2 2v16.253c0 1.102-.898 2-2 2h-12c-1.102 0-2-.898-2-2zM100.71 130.163v79.34a58.872 58.872 0 0 1 21.947 4.216v-7.437c0-1.102.898-2 2-2h12c1.102 0 2 .898 2 2v17.026c12.915 10.838 21.131 27.096 21.131 45.272a58.802 58.802 0 0 1-10.817 34.075h11.634V126.163H104.71c-2.203 0-4 1.797-4 4zm37.947 34.873v16.253c0 1.102-.898 2-2 2h-12c-1.102 0-2-.898-2-2v-16.253c0-1.102.898-2 2-2h12c1.101 0 2 .898 2 2zm117.344 158.776c23.791 0 43.078 19.287 43.078 43.078s-19.287 43.077-43.078 43.077-43.077-19.287-43.077-43.077 19.286-43.078 43.077-43.078zM177.051 496h157.9a4.982 4.982 0 0 0 4.923-5.877c-7.106-39.878-41.952-70.155-83.872-70.155-41.921 0-76.767 30.277-83.873 70.156a4.98 4.98 0 0 0 4.922 5.876zM305.936 16v15.502h-99.182V16zm-99.309 57.141c-1.102 0-2 .898-2 2v12c0 1.102.898 2 2 2h16.253c1.102 0 2-.898 2-2v-12c0-1.102-.898-2-2-2zm82.494 0c-1.101 0-2 .898-2 2v12c0 1.102.898 2 2 2h16.253c1.102 0 2-.898 2-2v-12c0-1.102-.898-2-2-2zm-41.247 0c-1.102 0-2 .898-2 2v12c0 1.102.898 2 2 2h16.253c1.101 0 2-.898 2-2v-12c0-1.102-.898-2-2-2zm-41.247 36.801c-1.102 0-2 .898-2 2v12c0 1.102.898 2 2 2h16.253c1.102 0 2-.898 2-2v-12c0-1.102-.898-2-2-2zm82.494 0c-1.101 0-2 .898-2 2v12c0 1.102.898 2 2 2h16.253c1.102 0 2-.898 2-2v-12c0-1.102-.898-2-2-2zm-41.247 0c-1.102 0-2 .898-2 2v12c0 1.102.898 2 2 2h16.253c1.101 0 2-.898 2-2v-12c0-1.102-.898-2-2-2zm-41.247 36.8c-1.102 0-2 .898-2 2v12c0 1.102.898 2 2 2h16.253c1.102 0 2-.898 2-2v-12c0-1.101-.898-2-2-2zm82.494 0c-1.101 0-2 .898-2 2v12c0 1.102.898 2 2 2h16.253c1.102 0 2-.898 2-2v-12c0-1.101-.898-2-2-2zm-41.247 0c-1.102 0-2 .898-2 2v12c0 1.102.898 2 2 2h16.253c1.101 0 2-.898 2-2v-12c0-1.101-.898-2-2-2zm-41.247 36.801c-1.102 0-2 .898-2 2v12c0 1.102.898 2 2 2h16.253c1.102 0 2-.898 2-2v-12c0-1.102-.898-2-2-2zm82.494 0c-1.101 0-2 .898-2 2v12c0 1.102.898 2 2 2h16.253c1.102 0 2-.898 2-2v-12c0-1.102-.898-2-2-2zm-41.247 0c-1.102 0-2 .898-2 2v12c0 1.102.898 2 2 2h16.253c1.101 0 2-.898 2-2v-12c0-1.102-.898-2-2-2z" clip-rule="evenodd" fill="#ea1997" opacity="1" data-original="#000000" class=""/></g></svg>