<?xml version="1.0" standalone="no"?>
<svg xmlns="http://www.w3.org/2000/svg" version="1.1" xmlns:xlink="http://www.w3.org/1999/xlink" width="512" height="512" x="0" y="0" viewBox="0 0 512 512" style="enable-background:new 0 0 512 512" xml:space="preserve" class=""><g><path fill-rule="evenodd" d="M492.846 280.684H211.187a3.745 3.745 0 0 0-2.512.87 1.748 1.748 0 0 0-.642 1.265v76.887c0 4.6 14.952 10.41 34.969 16.119 38.382 10.945 93.285 18.507 109.949 20.359 16.676-1.845 71.03-9.044 108.766-19.939 19.639-5.67 34.283-11.572 34.283-16.539v-76.887a1.746 1.746 0 0 0-.642-1.265 3.742 3.742 0 0 0-2.512-.87zm-9.024 102.221v88.3a13.111 13.111 0 0 1-13.056 13.056h-237.5a13.111 13.111 0 0 1-13.056-13.056v-88.841a192.425 192.425 0 0 0 19.1 6.427c39.64 11.305 96.506 19.07 112.778 20.843a6.7 6.7 0 0 0 1.571.017c16.052-1.741 72.458-9.134 111.8-20.492a184.329 184.329 0 0 0 18.363-6.254zM267.317 267.19v-12.948a19.84 19.84 0 0 1 19.8-19.8H412.1a19.84 19.84 0 0 1 19.8 19.8v12.948h9.911v-12.948a29.819 29.819 0 0 0-29.711-29.713H287.118a29.82 29.82 0 0 0-29.718 29.713v12.948zm91.556 94.11a6.691 6.691 0 0 1 0 10.316 10.748 10.748 0 0 1-13.713 0 6.689 6.689 0 0 1 0-10.316 10.748 10.748 0 0 1 13.713 0zm-6.857-15.965a23.692 23.692 0 0 1 15.818 5.95 20.015 20.015 0 0 1 0 30.346 24 24 0 0 1-31.635 0 20.013 20.013 0 0 1 0-30.346 23.69 23.69 0 0 1 15.817-5.95zM173.469 63.912h-8.943v8.943h8.943zm-15.69-13.494h22.437a6.747 6.747 0 0 1 6.747 6.747V79.6a6.747 6.747 0 0 1-6.747 6.747h-22.437a6.748 6.748 0 0 1-6.748-6.747V57.165a6.748 6.748 0 0 1 6.748-6.747zm70.872 13.494h-8.943v8.943h8.943zm-15.69-13.494H235.4a6.747 6.747 0 0 1 6.747 6.747V79.6a6.747 6.747 0 0 1-6.747 6.747h-22.439a6.747 6.747 0 0 1-6.747-6.747V57.165a6.747 6.747 0 0 1 6.747-6.747zm-39.492 69.019h-8.943v8.943h8.943zm-15.69-13.5h22.437a6.747 6.747 0 0 1 6.747 6.747v22.438a6.747 6.747 0 0 1-6.747 6.747h-22.437a6.748 6.748 0 0 1-6.748-6.747v-22.433a6.748 6.748 0 0 1 6.748-6.747zm70.872 13.5h-8.943v8.943h8.943zm-15.69-13.5H235.4a6.747 6.747 0 0 1 6.747 6.747v22.438a6.747 6.747 0 0 1-6.747 6.747h-22.439a6.747 6.747 0 0 1-6.747-6.747v-22.433a6.747 6.747 0 0 1 6.747-6.747zm-39.492 69.019h-8.943v8.944h8.943v-8.943zm-15.69-13.5h22.437a6.747 6.747 0 0 1 6.747 6.747v22.438a6.747 6.747 0 0 1-6.747 6.747h-22.437a6.748 6.748 0 0 1-6.748-6.747v-22.428a6.748 6.748 0 0 1 6.748-6.747zm70.872 13.5h-8.943v8.944h8.943v-8.943zm-15.69-13.5H235.4a6.747 6.747 0 0 1 6.747 6.747v22.438a6.747 6.747 0 0 1-6.747 6.759h-22.439a6.747 6.747 0 0 1-6.747-6.747v-22.44a6.747 6.747 0 0 1 6.747-6.747zm-39.492 69.019h-8.943v8.943h8.943zm-15.69-13.5h22.437a6.748 6.748 0 0 1 6.747 6.748v22.437a6.747 6.747 0 0 1-6.747 6.747h-22.437a6.748 6.748 0 0 1-6.748-6.747v-22.422a6.748 6.748 0 0 1 6.748-6.748zm70.872 13.5h-8.943v8.943h8.943zm-15.69-13.5H235.4a6.748 6.748 0 0 1 6.747 6.748v22.437a6.747 6.747 0 0 1-6.747 6.747h-22.439a6.747 6.747 0 0 1-6.747-6.747v-22.422a6.748 6.748 0 0 1 6.747-6.748zm-39.492 69.019h-8.943v8.943h8.943zm-15.69-13.494h22.437a6.747 6.747 0 0 1 6.747 6.747V301.7a6.747 6.747 0 0 1-6.747 6.747h-22.437a6.748 6.748 0 0 1-6.748-6.747v-22.438a6.748 6.748 0 0 1 6.748-6.747zm18.512 197.647h30.425v-69.531h-30.425v69.546zm-47.192 0V27.738h134.979V217.73a43.612 43.612 0 0 0-7.48 5.992 43.079 43.079 0 0 0-12.687 30.52v12.948h-32.724a17.2 17.2 0 0 0-11.473 4.349 15.113 15.113 0 0 0-5.176 11.28v76.887c0 5.947 4.549 11.27 12.178 16.011v11.405h-37.172a6.748 6.748 0 0 0-6.748 6.747v76.293zm-113.1 0h99.6V138.174L16 172.9v297.262zM369.7 267.19h-88.889v-12.948a6.344 6.344 0 0 1 6.307-6.307H369.7zm0-56.155V97.09h-92.127V212.1a43.055 43.055 0 0 1 9.545-1.069z" fill="#ea1997" opacity="1" data-original="#000000"/></g></svg>