<?xml version="1.0" standalone="no"?>
<svg xmlns="http://www.w3.org/2000/svg" version="1.1" xmlns:xlink="http://www.w3.org/1999/xlink" width="512" height="512" x="0" y="0" viewBox="0 0 48 48" style="enable-background:new 0 0 512 512" xml:space="preserve"><g><path d="M44.485 31.5A2.489 2.489 0 0 0 44 27.211V23.79l-2 .85v2.571a2.489 2.489 0 0 0-.485 4.29 2.488 2.488 0 0 0-1.015 2V36a1 1 0 0 0 1 1h3a1 1 0 0 0 1-1v-2.5a2.488 2.488 0 0 0-1.015-2zM39 25.91v7.4a4.961 4.961 0 0 1-2.4 4.28 24.984 24.984 0 0 1-25.2 0A4.961 4.961 0 0 1 9 33.31v-7.4l12.27 5.19a7.05 7.05 0 0 0 5.46 0z" fill="#ea1997" opacity="1" data-original="#000000"/><path d="m46.036 15.237-20.088-8.5a5.029 5.029 0 0 0-3.9 0l-20.088 8.5a3 3 0 0 0 0 5.526l20.088 8.5a5.024 5.024 0 0 0 3.9 0l20.088-8.5a3 3 0 0 0 0-5.526z" fill="#ea1997" opacity="1" data-original="#000000"/></g></svg>